<svg width="19" height="20" viewBox="0 0 19 20" fill="none" xmlns="http://www.w3.org/2000/svg">
<path d="M1.70783 17.6994C2.84007 18.9999 4.94604 18.9999 9.15986 18.9999H9.8392C14.053 18.9999 16.1599 18.9999 17.2922 17.6994M1.70783 17.6994C0.575591 16.398 0.964326 14.4235 1.74085 10.4725C2.29282 7.66459 2.56833 6.25972 3.6166 5.42994M17.2922 17.6994C18.4244 16.398 18.0357 14.4235 17.2591 10.4725C16.7072 7.66459 16.4307 6.25972 15.3825 5.42994M15.3825 5.42994C14.3351 4.60016 12.8359 4.60016 9.84014 4.60016H9.15891C6.16319 4.60016 4.66486 4.60016 3.6166 5.42994" stroke="#1C1D1D" stroke-width="1.6"/>
<path d="M6.66895 4.59992V3.69994C6.66895 2.98387 6.96717 2.29713 7.49801 1.7908C8.02885 1.28446 8.74882 1 9.49954 1C10.2503 1 10.9702 1.28446 11.5011 1.7908C12.0319 2.29713 12.3301 2.98387 12.3301 3.69994V4.59992" stroke="#1C1D1D" stroke-width="1.6" stroke-linecap="round"/>
</svg>
