<svg width="24" height="24" viewBox="0 0 24 24" fill="none" xmlns="http://www.w3.org/2000/svg">
<path d="M10 6C10 4.93913 9.57857 3.92172 8.82843 3.17157C8.07828 2.42143 7.06087 2 6 2C4.93913 2 3.92172 2.42143 3.17157 3.17157C2.42143 3.92172 2 4.93913 2 6C2 7.06087 2.42143 8.07828 3.17157 8.82843C3.92172 9.57857 4.93913 10 6 10C7.06087 10 8.07828 9.57857 8.82843 8.82843C9.57857 8.07828 10 7.06087 10 6ZM10 18C10 16.9391 9.57857 15.9217 8.82843 15.1716C8.07828 14.4214 7.06087 14 6 14C4.93913 14 3.92172 14.4214 3.17157 15.1716C2.42143 15.9217 2 16.9391 2 18C2 19.0609 2.42143 20.0783 3.17157 20.8284C3.92172 21.5786 4.93913 22 6 22C7.06087 22 8.07828 21.5786 8.82843 20.8284C9.57857 20.0783 10 19.0609 10 18ZM22 6C22 4.93913 21.5786 3.92172 20.8284 3.17157C20.0783 2.42143 19.0609 2 18 2C16.9391 2 15.9217 2.42143 15.1716 3.17157C14.4214 3.92172 14 4.93913 14 6C14 7.06087 14.4214 8.07828 15.1716 8.82843C15.9217 9.57857 16.9391 10 18 10C19.0609 10 20.0783 9.57857 20.8284 8.82843C21.5786 8.07828 22 7.06087 22 6ZM22 18C22 16.9391 21.5786 15.9217 20.8284 15.1716C20.0783 14.4214 19.0609 14 18 14C16.9391 14 15.9217 14.4214 15.1716 15.1716C14.4214 15.9217 14 16.9391 14 18C14 19.0609 14.4214 20.0783 15.1716 20.8284C15.9217 21.5786 16.9391 22 18 22C19.0609 22 20.0783 21.5786 20.8284 20.8284C21.5786 20.0783 22 19.0609 22 18Z" stroke="#222222" stroke-width="1.5"/>
</svg>
