<svg width="30" height="30" viewBox="0 0 30 30" fill="none" xmlns="http://www.w3.org/2000/svg">
<path d="M27.4664 24.6094C25.8598 21.7895 23.3509 19.5923 20.3438 18.3715C21.8392 17.2499 22.9438 15.6863 23.5012 13.902C24.0585 12.1178 24.0404 10.2034 23.4492 8.43008C22.8581 6.65674 21.724 5.11434 20.2076 4.02136C18.6912 2.92838 16.8693 2.34023 15 2.34023C13.1308 2.34023 11.3089 2.92838 9.79246 4.02136C8.27603 5.11434 7.14194 6.65674 6.55083 8.43008C5.95971 10.2034 5.94155 12.1178 6.4989 13.902C7.05625 15.6863 8.16087 17.2499 9.65629 18.3715C6.64916 19.5923 4.14032 21.7895 2.53363 24.6094C2.43407 24.7695 2.36772 24.9479 2.33851 25.1342C2.30931 25.3204 2.31784 25.5106 2.36362 25.6935C2.40939 25.8764 2.49146 26.0482 2.60496 26.1987C2.71846 26.3492 2.86106 26.4754 3.02429 26.5697C3.18752 26.664 3.36804 26.7245 3.55513 26.7476C3.74222 26.7708 3.93205 26.7561 4.11334 26.7044C4.29463 26.6527 4.46368 26.5651 4.61043 26.4468C4.75719 26.3285 4.87866 26.1818 4.96761 26.0156C7.09105 22.3453 10.8411 20.1562 15 20.1562C19.159 20.1562 22.909 22.3465 25.0325 26.0156C25.2253 26.3256 25.531 26.5485 25.8852 26.6371C26.2393 26.7258 26.614 26.6732 26.9301 26.4906C27.2462 26.308 27.4789 26.0096 27.579 25.6585C27.6791 25.3075 27.6387 24.9312 27.4664 24.6094ZM8.90629 11.25C8.90629 10.0448 9.26368 8.86661 9.93327 7.86449C10.6029 6.86238 11.5546 6.08133 12.6681 5.62011C13.7815 5.15889 15.0068 5.03821 16.1889 5.27334C17.3709 5.50847 18.4567 6.08884 19.309 6.94107C20.1612 7.79329 20.7416 8.8791 20.9767 10.0612C21.2118 11.2432 21.0912 12.4685 20.6299 13.582C20.1687 14.6955 19.3877 15.6472 18.3855 16.3168C17.3834 16.9864 16.2053 17.3437 15 17.3437C13.3844 17.3419 11.8356 16.6993 10.6932 15.5569C9.55076 14.4145 8.90815 12.8656 8.90629 11.25Z" fill="#222222"/>
</svg>
